<svg xmlns="http://www.w3.org/2000/svg" width="50.592" height="38.105" viewBox="0 0 50.592 38.105">
  <defs>
    <style>
      .cls-1 {
        fill: #154a31;
      }
    </style>
  </defs>
  <g id="Group_60" data-name="Group 60" transform="translate(-61.206 -279.08)">
    <path id="Path_11" data-name="Path 11" class="cls-1" d="M164.824,612.746l9.108,5.38v3.627l-17.54-9.707-2.36.935a1.643,1.643,0,0,1-.6.116h-.574a1.639,1.639,0,0,1-.6-.116l-2.362-.935-17.54,9.707v-3.627l9.108-5.38v-1.9l2.227-1.6-3.277-1.5-6.23,3.077v-3.553l2.152-1.4-8.483-3.9,5.505-16.439h1.9L130.1,600.986l22.135,10.094a1.561,1.561,0,0,0,.648.141h.522a1.564,1.564,0,0,0,.648-.141l22.135-10.094-5.154-15.462h1.9l5.5,16.439-8.482,3.9,2.152,1.4v3.553l-6.231-3.077-3.278,1.5,2.227,1.6Z" transform="translate(-66.638 -304.567)"/>
    <path id="Path_12" data-name="Path 12" class="cls-1" d="M157.139,588.934v18.2l-19.967-9.1,5.442-16.419Z" transform="translate(-71.488 -302.535)"/>
    <path id="Path_13" data-name="Path 13" class="cls-1" d="M181.78,588.934v18.2l19.967-9.1L196.3,581.615Z" transform="translate(-94.677 -302.535)"/>
  </g>
</svg>
